<svg  viewBox="0 0 308 308" fill="none" xmlns="http://www.w3.org/2000/svg">
<path fill-rule="evenodd" clip-rule="evenodd" d="M7.90061 7.9008C12.7013 3.10154 19.2116 0.405465 25.9998 0.405465C32.788 0.405465 39.2983 3.10154 44.099 7.9008L154 117.802L263.901 7.9008C266.262 5.45574 269.087 3.50547 272.21 2.1638C275.334 0.822132 278.693 0.115923 282.092 0.0863853C285.491 0.0568476 288.862 0.704566 292.008 1.99176C295.154 3.27895 298.013 5.17983 300.416 7.58348C302.82 9.98713 304.721 12.8454 306.008 15.9916C307.295 19.1377 307.943 22.5087 307.913 25.9079C307.884 29.307 307.178 32.6662 305.836 35.7895C304.494 38.9128 302.544 41.7377 300.099 44.0992L190.198 154L300.099 263.901C304.762 268.729 307.343 275.196 307.284 281.908C307.226 288.62 304.534 295.041 299.787 299.787C295.041 304.534 288.62 307.226 281.908 307.284C275.195 307.343 268.729 304.762 263.901 300.099L154 190.198L44.099 300.099C39.2708 304.762 32.8042 307.343 26.0919 307.284C19.3797 307.226 12.9589 304.534 8.21245 299.787C3.466 295.041 0.773672 288.62 0.715344 281.908C0.657017 275.196 3.23736 268.729 7.90061 263.901L117.801 154L7.90061 44.0992C3.10135 39.2985 0.405273 32.7882 0.405273 26C0.405273 19.2118 3.10135 12.7015 7.90061 7.9008Z" fill="currentColor"/>
</svg>
