<svg width="325" height="32" viewBox="0 0 325 32" fill="none" xmlns="http://www.w3.org/2000/svg">
<g clip-path="url(#clip0_1627_503)">
<path d="M99.2617 6.9126H106.602V9.12619H101.825V10.6796H106.174V12.8155H101.825V16.0776H99.2617V6.9126Z" fill="#5C585B"/>
<path d="M107.767 12.0388V6.9126H110.369V12.0388C110.369 13.3592 111.029 13.9806 112.077 13.9806C113.126 13.9806 113.786 13.3592 113.786 12.0776V6.9126H116.388V12C116.388 14.9514 114.679 16.2718 112.077 16.2718C109.437 16.2718 107.767 14.9514 107.767 12.0388Z" fill="#5C585B"/>
<path d="M117.709 6.9126H120.117L123.884 11.767V6.9126H126.408V16.0776H124.156L120.233 11.0291V16.0776H117.709V6.9126Z" fill="#5C585B"/>
<path d="M131.495 13.8252C133.01 13.8252 134.02 12.9709 134.02 11.4951V11.4563C134.02 9.98056 133.01 9.12619 131.495 9.12619H130.447V13.7864H131.495V13.8252ZM127.884 6.9126H131.418C134.719 6.9126 136.622 8.81551 136.622 11.4563V11.4951C136.622 14.1359 134.68 16.1165 131.379 16.1165H127.884V6.9126Z" fill="#5C585B"/>
<path d="M142.291 12.466L141.282 9.86409L140.233 12.466H142.291ZM140.078 6.83496H142.524L146.447 16.0777H143.728L143.068 14.4466H139.534L138.874 16.0777H136.194L140.078 6.83496Z" fill="#5C585B"/>
<path d="M148.621 17.5146L149.631 16.1166C147.572 15.6117 146.097 13.8253 146.097 11.4952V11.4564C146.097 8.77677 148.155 6.67969 150.951 6.67969C152.815 6.67969 154.019 7.45639 154.835 8.5826L152.932 10.0583C152.388 9.39813 151.805 8.97095 150.912 8.97095C149.631 8.97095 148.737 10.0583 148.737 11.4176V11.4564C148.737 12.8544 149.631 13.903 150.912 13.903C151.883 13.903 152.427 13.4758 152.97 12.7768L154.873 14.136C154.097 15.2234 153.048 16.0389 151.301 16.1943L150.563 18.2913L148.621 17.5146Z" fill="#5C585B"/>
<path d="M161.126 12.466L160.117 9.86408L159.068 12.466H161.126ZM157.359 6.05825C157.631 4.7767 158.097 4.1165 158.99 4.1165C159.767 4.1165 160.622 4.62136 161.049 4.62136C161.398 4.62136 161.554 4.42718 161.709 4L162.913 4.31068C162.641 5.59223 162.175 6.25243 161.282 6.25243C160.505 6.25243 159.651 5.74757 159.223 5.74757C158.835 5.74757 158.719 5.94175 158.563 6.36893L157.359 6.05825ZM158.913 6.83495H161.359L165.282 16.0777H162.563L161.903 14.4466H158.369L157.709 16.0777H155.029L158.913 6.83495Z" fill="#5C585B"/>
<path d="M172.077 11.534C172.077 10.1748 171.106 9.00977 169.708 9.00977C168.31 9.00977 167.378 10.136 167.378 11.4564V11.4952C167.378 12.8156 168.349 13.9806 169.747 13.9806C171.145 13.9806 172.077 12.8544 172.077 11.534ZM164.776 11.534C164.776 8.85443 166.912 6.71851 169.747 6.71851C172.582 6.71851 174.679 8.81559 174.679 11.4564V11.4952C174.679 14.136 172.543 16.2719 169.708 16.2719C166.873 16.2719 164.776 14.1748 164.776 11.534Z" fill="#5C585B"/>
<path d="M102.835 29.5535C104.349 29.5535 105.359 28.6991 105.359 27.2234V27.1846C105.359 25.7088 104.349 24.8545 102.835 24.8545H101.786V29.5147H102.835V29.5535ZM99.2617 22.6409H102.796C106.097 22.6409 108 24.5438 108 27.1846C108 29.8253 106.058 31.8059 102.757 31.8059H99.2617V22.6409Z" fill="#5C585B"/>
<path d="M116.155 27.2621C116.155 25.9029 115.185 24.7379 113.787 24.7379C112.388 24.7379 111.456 25.8641 111.456 27.1845V27.2233C111.456 28.5437 112.427 29.7087 113.825 29.7087C115.223 29.7087 116.155 28.5825 116.155 27.2621ZM108.854 27.2621C108.854 24.5825 110.99 22.4466 113.825 22.4466C116.66 22.4466 118.757 24.5437 118.757 27.1845V27.2233C118.757 29.8641 116.621 32 113.787 32C110.952 32 108.854 29.9029 108.854 27.2621Z" fill="#5C585B"/>
<path d="M126.757 22.6408L124.583 26.1748L122.369 22.6408H119.689V31.8058H122.175V26.5631L124.505 30.1359H124.583L126.913 26.5243V31.8058H129.476V22.6408H126.757Z" fill="#5C585B"/>
<path d="M134.136 27.2621C134.136 24.5437 136.194 22.4466 138.99 22.4466C140.854 22.4466 142.058 23.2233 142.874 24.3495L140.971 25.8252C140.427 25.165 139.844 24.7379 138.951 24.7379C137.67 24.7379 136.777 25.8252 136.777 27.1845V27.2233C136.777 28.5825 137.67 29.6699 138.951 29.6699C139.922 29.6699 140.466 29.2427 141.01 28.5437L142.912 29.9029C142.058 31.1068 140.893 31.9612 138.835 31.9612C136.272 32 134.136 29.9806 134.136 27.2621Z" fill="#5C585B"/>
<path d="M147.961 25.5922L148.971 28.1942H146.913L147.961 25.5922ZM146.757 22.5631L142.835 31.8058H145.515L146.175 30.1748H149.709L150.369 31.8058H153.087L149.165 22.5631H146.757Z" fill="#5C585B"/>
<path d="M158.33 29.7864C159.107 29.7864 159.534 29.4757 159.534 28.932V28.8932C159.534 28.3884 159.146 28.0777 158.291 28.0777H156.35V29.7864H158.33ZM157.942 26.2913C158.719 26.2913 159.146 26.0194 159.146 25.4757V25.4369C159.146 24.932 158.757 24.6602 157.981 24.6602H156.311V26.2913H157.942ZM153.864 22.6408H158.563C159.728 22.6408 160.544 22.9126 161.088 23.4563C161.437 23.8058 161.67 24.3107 161.67 24.932V24.9709C161.67 26.0194 161.049 26.6796 160.272 27.0291C161.398 27.3786 162.097 28.0388 162.097 29.2816V29.3204C162.097 30.9126 160.816 31.8447 158.602 31.8447H153.864V22.6408Z" fill="#5C585B"/>
<path d="M167.339 27.0292C168.194 27.0292 168.699 26.602 168.699 25.9418V25.903C168.699 25.1651 168.155 24.8156 167.301 24.8156H165.631V27.0292H167.339ZM163.106 22.6409H167.456C168.854 22.6409 169.825 22.9904 170.446 23.6506C170.99 24.1943 171.262 24.8933 171.262 25.7865V25.8253C171.262 27.2234 170.524 28.1554 169.359 28.6603L171.534 31.8836H168.582L166.718 29.0875H166.679H165.592V31.8836H163.106V22.6409Z" fill="#5C585B"/>
<path d="M176.66 25.5922L177.67 28.1942H175.612L176.66 25.5922ZM175.457 22.5631L171.534 31.8058H174.214L174.874 30.1748H178.408L179.068 31.8058H181.787L177.864 22.5631H175.457Z" fill="#5C585B"/>
<path d="M182.446 22.6409V31.8059H189.437V29.5923H185.009V22.6409H182.446Z" fill="#5C585B"/>
<path d="M41.2817 22.7184H45.5147C49.8642 22.7184 52.4662 20.1553 52.4662 15.8835C52.4662 11.6117 49.8642 9.04854 45.5147 9.04854H41.2817V22.7184ZM45.5536 31.8058H32.1943V0H45.5147C54.7963 0 61.5536 6.67961 61.5536 15.9223C61.5924 25.1262 54.8351 31.8058 45.5536 31.8058Z" fill="#005E83"/>
<path d="M29.1262 0H0V8.93204H29.1262V0Z" fill="#2A9FBC"/>
<path d="M19.6117 11.4175H0V20.3495H19.6117V11.4175Z" fill="#2A9FBC"/>
<path d="M9.78641 22.8738H0V31.8058H9.78641V22.8738Z" fill="#2A9FBC"/>
<path d="M80.5436 31.8058C71.767 31.8058 64.6602 24.6602 64.6602 15.9223C64.6602 7.14565 71.8058 0.0388489 80.5436 0.0388489C84.7378 0.0388489 88.699 1.66992 91.6893 4.62137L85.3204 11.1068C84.0388 9.86409 82.3301 9.16506 80.5436 9.16506C76.7767 9.16506 73.7475 12.233 73.7475 15.9612C73.7475 19.7282 76.8155 22.7573 80.5436 22.7573C82.3689 22.7573 84.0776 22.0583 85.3592 20.7767L91.8058 27.2233C88.7767 30.1359 84.7767 31.8058 80.5436 31.8058Z" fill="#005E83"/>
</g>
<line x1="206.937" y1="2.18558e-08" x2="206.937" y2="32" stroke="#E4E2E2"/>
<path d="M229.887 12.8935C229.339 13.4639 228.616 13.7134 227.939 13.7134C226.598 13.7015 225.723 12.7628 225.723 11.3726C225.723 10.0537 226.528 9.03184 227.963 9.03184C228.231 9.03184 228.511 9.05561 228.802 9.16255L228.861 10.4933H230.82V8.09316C230.074 7.34458 229.001 7 227.963 7C224.895 7 223.414 9.23384 223.437 11.3726C223.449 14.1649 225.315 15.7571 227.939 15.7452C229.234 15.7334 230.319 15.3531 231.24 14.4382L229.887 12.8935Z" fill="#5C585B"/>
<path d="M240.689 11.3726C240.689 8.61597 238.846 7.02376 236.164 7.02376C233.493 7.02376 231.627 8.65162 231.627 11.3726C231.627 14.1649 233.493 15.7334 236.164 15.7334C238.846 15.7334 240.689 14.1649 240.689 11.3726ZM238.38 11.3726C238.38 12.7628 237.517 13.7253 236.164 13.7253C234.858 13.7253 233.936 12.7628 233.936 11.3726C233.936 10.0062 234.846 9.03184 236.164 9.03184C237.517 9.03184 238.38 9.93489 238.38 11.3726Z" fill="#5C585B"/>
<path d="M242.337 13.6778H241.358V15.5314C242.769 15.5314 244.157 15.5314 245.545 15.5314V13.8679L244.635 13.7966V12.846H245.533L246.548 14.3313V15.5314C247.644 15.5314 248.74 15.5314 249.837 15.5314V13.6778H248.775L247.912 12.5133C249.172 11.9073 249.499 11.0637 249.499 10.0775C249.499 8.58032 248.414 7.21388 246.326 7.21388H241.358V9.05561H242.337V13.6778ZM246.314 9.09125C246.933 9.09125 247.213 9.55466 247.213 10.0894C247.213 10.624 246.909 11.0875 246.338 11.0875H244.635V9.09125H246.314Z" fill="#5C585B"/>
<path d="M250.652 7.21388V9.07937H251.62V13.6778H250.652V15.5314C252.063 15.5314 253.579 15.5314 254.979 15.5314V13.7372L253.941 13.6778C253.941 13.4045 253.941 13.1193 253.941 12.8341H255.422C257.078 12.8222 258.688 11.9786 258.688 10.0299C258.688 8.06939 257.323 7.21388 255.422 7.21388H250.652ZM253.941 9.24572H255.422C255.947 9.24572 256.378 9.50713 256.378 10.0537C256.378 10.6478 255.947 10.9211 255.422 10.9211H253.941V9.24572Z" fill="#5C585B"/>
<path d="M268.253 11.3726C268.253 8.61597 266.41 7.02376 263.727 7.02376C261.056 7.02376 259.19 8.65162 259.19 11.3726C259.19 14.1649 261.056 15.7334 263.727 15.7334C266.41 15.7334 268.253 14.1649 268.253 11.3726ZM265.943 11.3726C265.943 12.7628 265.08 13.7253 263.727 13.7253C262.421 13.7253 261.5 12.7628 261.5 11.3726C261.5 10.0062 262.409 9.03184 263.727 9.03184C265.08 9.03184 265.943 9.93489 265.943 11.3726Z" fill="#5C585B"/>
<path d="M269.901 13.6778H268.921V15.5314C270.332 15.5314 271.72 15.5314 273.108 15.5314V13.8679L272.198 13.7966V12.846H273.096L274.111 14.3313V15.5314C275.207 15.5314 276.304 15.5314 277.4 15.5314V13.6778H276.339L275.476 12.5133C276.735 11.9073 277.062 11.0637 277.062 10.0775C277.062 8.58032 275.977 7.21388 273.89 7.21388H268.921V9.05561H269.901V13.6778ZM273.878 9.09125C274.496 9.09125 274.776 9.55466 274.776 10.0894C274.776 10.624 274.473 11.0875 273.901 11.0875H272.198V9.09125H273.878Z" fill="#5C585B"/>
<path d="M287.966 15.5314V13.6778H287.067L284.233 7.21388C282.857 7.21388 281.283 7.21388 279.918 7.21388V9.05561H280.839L278.81 13.6778H277.9V15.5314H281.994V13.856L281.224 13.7966L281.481 13.0599H284.373L284.63 13.7847L283.907 13.856V15.5314H287.966ZM282.169 11.2182L282.915 9.21008L283.685 11.2182H282.169Z" fill="#5C585B"/>
<path d="M287.402 7.21388V10.4339H289.349L289.419 9.21008H290.166V13.6778H289.198V15.5314H293.455V13.6778H292.498V9.21008H293.233L293.303 10.4339H295.251V7.21388H287.402Z" fill="#5C585B"/>
<path d="M301.581 13.5471H299.248V12.2875H301.208V10.4577H299.248V9.17443H301.429L301.476 10.0062H303.226V7.21388C300.835 7.21388 298.455 7.21388 296.064 7.21388V9.05561H296.962V13.6778H296.064V15.5314C298.502 15.5314 300.951 15.5314 303.377 15.5314V12.7153H301.628L301.581 13.5471Z" fill="#5C585B"/>
<path d="M224.592 25.4173V30.0157H223.717V31.8693H231.007V28.5542H228.989L228.896 29.8731H226.913V25.4173H227.881V23.5518C226.47 23.5518 225.047 23.5518 223.659 23.5518V25.4173H224.592Z" fill="#5C585B"/>
<path d="M237.32 29.885H234.987V28.6255H236.946V26.7956H234.987V25.5124H237.168L237.215 26.3441H238.964V23.5518C236.573 23.5518 234.194 23.5518 231.803 23.5518V25.3935H232.701V30.0157H231.803V31.8693C234.241 31.8693 236.69 31.8693 239.116 31.8693V29.0532H237.366L237.32 29.885Z" fill="#5C585B"/>
<path d="M249.787 31.8693V30.0157H248.889L246.055 23.5518C244.678 23.5518 243.104 23.5518 241.739 23.5518V25.3935H242.661L240.631 30.0157H239.721V31.8693H243.815V30.1939L243.045 30.1345L243.302 29.3978H246.195L246.451 30.1226L245.728 30.1939V31.8693H249.787ZM243.99 27.5561L244.737 25.548L245.506 27.5561H243.99Z" fill="#5C585B"/>
<path d="M251.301 30.0157H250.321V31.8693C251.733 31.8693 253.121 31.8693 254.508 31.8693V30.2058L253.599 30.1345V29.1839H254.497L255.512 30.6692V31.8693C256.608 31.8693 257.704 31.8693 258.801 31.8693V30.0157H257.739L256.876 28.8512C258.136 28.2452 258.462 27.4016 258.462 26.4154C258.462 24.9183 257.378 23.5518 255.29 23.5518H250.321V25.3935H251.301V30.0157ZM255.278 25.4292C255.896 25.4292 256.176 25.8926 256.176 26.4273C256.176 26.962 255.873 27.4254 255.302 27.4254H253.599V25.4292H255.278Z" fill="#5C585B"/>
<path d="M262.543 23.5518H259.616V25.4173H260.584V30.0157H259.616V31.8693C260.98 31.8693 262.345 31.8693 263.721 31.8693V30.0157H262.928V29.1958L262.893 27.3897L266.287 31.8693H268.258V25.4173H269.203V23.5518C267.861 23.5518 266.485 23.5518 265.132 23.5518V25.4173H265.925V26.4035C265.949 26.7243 265.949 27.1046 265.995 28.1027L262.543 23.5518Z" fill="#5C585B"/>
<path d="M274.597 29.3146C274.597 28.6492 275.274 28.5185 275.799 28.5185H277.047V29.077C277.047 29.7424 276.405 30.1107 275.729 30.1107C275.146 30.1107 274.597 29.885 274.597 29.3146ZM279.158 25.952C279.158 24.039 277.641 23.3973 275.997 23.3973C274.551 23.3973 272.603 23.9677 272.603 25.9758C272.603 26.451 272.825 27.2828 273.501 27.6274C272.778 28.0433 272.323 28.8156 272.323 29.4453C272.323 31.4534 273.886 32 275.449 32C276.568 32 277.338 31.6554 277.956 30.99C278.341 31.9762 279.263 32.0238 279.997 31.8812V29.8256C279.438 29.9206 279.123 29.576 279.123 29.1245V28.4829H279.951V26.8194H275.927C275.484 26.8194 274.947 26.5461 274.947 25.9282C274.947 24.9064 277.035 24.8351 277.058 25.952H279.158Z" fill="#5C585B"/>
<path d="M284.229 25.3935V30.0157H283.342V31.8693H287.728C290.655 31.8693 292.02 29.9325 292.02 27.6274C292.02 25.346 290.609 23.5518 287.728 23.5518H283.342V25.3935H284.229ZM286.527 25.5005H287.728C289.139 25.5005 289.734 26.4748 289.734 27.6036C289.734 28.7443 289.209 29.885 287.728 29.885H286.527V25.5005Z" fill="#5C585B"/>
<path d="M293.683 30.0157H292.703V31.8693C294.114 31.8693 295.502 31.8693 296.89 31.8693V30.2058L295.98 30.1345V29.1839H296.878L297.893 30.6692V31.8693C298.989 31.8693 300.086 31.8693 301.182 31.8693V30.0157H300.121L299.258 28.8512C300.517 28.2452 300.844 27.4016 300.844 26.4154C300.844 24.9183 299.759 23.5518 297.672 23.5518H292.703V25.3935H293.683V30.0157ZM297.66 25.4292C298.278 25.4292 298.558 25.8926 298.558 26.4273C298.558 26.962 298.255 27.4254 297.683 27.4254H295.98V25.4292H297.66Z" fill="#5C585B"/>
<path d="M302.988 25.3935C302.988 26.9382 302.988 28.4591 302.988 30.0157H302.032V31.8693C303.443 31.8693 304.855 31.8693 306.278 31.8693V30.0157H305.309C305.309 28.4591 305.309 26.9382 305.309 25.3935H306.278V23.5518C304.855 23.5518 303.443 23.5518 302.032 23.5518V25.3935H302.988Z" fill="#5C585B"/>
<path d="M311.061 23.5518H306.874V25.3935H307.726L310.56 31.9049H312.788L315.622 25.3935H316.473V23.5518H312.298V25.3935H313.091L311.668 29.0889L310.268 25.3935H311.061V23.5518Z" fill="#5C585B"/>
<path d="M322.641 29.885H320.308V28.6255H322.268V26.7956H320.308V25.5124H322.489L322.536 26.3441H324.285V23.5518C321.894 23.5518 319.515 23.5518 317.124 23.5518V25.3935H318.022V30.0157H317.124V31.8693C319.562 31.8693 322.011 31.8693 324.437 31.8693V29.0532H322.688L322.641 29.885Z" fill="#5C585B"/>
<defs>
<clipPath id="clip0_1627_503">
<rect width="189.437" height="32" fill="white"/>
</clipPath>
</defs>
</svg>
