<svg  viewBox="0 0 512 512" fill="none" xmlns="http://www.w3.org/2000/svg">
<path fill-rule="evenodd" clip-rule="evenodd" d="M76.7998 128C76.7998 121.21 79.4969 114.699 84.2979 109.898C89.0988 105.097 95.6103 102.4 102.4 102.4H409.6C416.389 102.4 422.901 105.097 427.702 109.898C432.503 114.699 435.2 121.21 435.2 128C435.2 134.79 432.503 141.301 427.702 146.102C422.901 150.903 416.389 153.6 409.6 153.6H102.4C95.6103 153.6 89.0988 150.903 84.2979 146.102C79.4969 141.301 76.7998 134.79 76.7998 128ZM76.7998 256C76.7998 249.21 79.4969 242.699 84.2979 237.898C89.0988 233.097 95.6103 230.4 102.4 230.4H409.6C416.389 230.4 422.901 233.097 427.702 237.898C432.503 242.699 435.2 249.21 435.2 256C435.2 262.79 432.503 269.301 427.702 274.102C422.901 278.903 416.389 281.6 409.6 281.6H102.4C95.6103 281.6 89.0988 278.903 84.2979 274.102C79.4969 269.301 76.7998 262.79 76.7998 256ZM76.7998 384C76.7998 377.21 79.4969 370.699 84.2979 365.898C89.0988 361.097 95.6103 358.4 102.4 358.4H409.6C416.389 358.4 422.901 361.097 427.702 365.898C432.503 370.699 435.2 377.21 435.2 384C435.2 390.79 432.503 397.301 427.702 402.102C422.901 406.903 416.389 409.6 409.6 409.6H102.4C95.6103 409.6 89.0988 406.903 84.2979 402.102C79.4969 397.301 76.7998 390.79 76.7998 384Z" fill="currentColor"/>
</svg>
