<svg viewBox="0 0 512 512" fill="none" xmlns="http://www.w3.org/2000/svg">
<path d="M384.815 424.529C363.074 424.529 343.779 418.822 326.93 407.408C310.081 395.994 296.764 380.503 286.981 360.936C277.197 341.369 272.306 319.628 272.306 295.713C272.306 256.58 285.079 218.261 310.624 180.758C336.713 142.711 373.401 111.459 420.688 87L512 135.917C481.019 151.136 454.658 168.8 432.917 188.911C411.72 209.021 397.316 232.665 389.707 259.841C415.253 262.015 435.907 269.896 451.669 283.484C467.975 296.529 476.127 314.737 476.127 338.108C476.127 361.48 467.703 381.862 450.853 399.255C434.548 416.104 412.535 424.529 384.815 424.529ZM112.51 424.529C90.7686 424.529 71.4735 418.822 54.6242 407.408C37.7749 395.994 24.4586 380.503 14.6752 360.936C4.89172 341.369 0 319.628 0 295.713C0 256.58 12.7728 218.261 38.3185 180.758C64.4076 142.711 101.096 111.459 148.382 87L239.694 135.917C208.713 151.136 182.352 168.8 160.611 188.911C139.414 209.021 125.011 232.665 117.401 259.841C142.947 262.015 163.601 269.896 179.363 283.484C195.669 296.529 203.822 314.737 203.822 338.108C203.822 361.48 195.397 381.862 178.548 399.255C162.242 416.104 140.229 424.529 112.51 424.529Z" fill="currentColor"/>
</svg>
